# xmcd CD database file
#
# Track frame offsets:
#	150
#	18599
#	35248
#	51312
#	66912
#	83262
#	99760
#	117984
#	139732
#	164257
#
# Disc length: 2420 seconds
#
# Revision: 0
# Processed by: cddbd v1.5.1PL0 Copyright (c) Steve Scherf et al.
# Submitted via: CDex 1.51
#
DISCID=7f09720a
DTITLE=Nobody's Fault - Walk In My Shoes
DYEAR=2003
DGENRE=Blues
TTITLE0=Mama Didn't Raise No Fool
TTITLE1=Without You
TTITLE2=Walk In My Shoes
TTITLE3=It Ain't Hard Being Me
TTITLE4=Best Of Me
TTITLE5=Catfish Song
TTITLE6=Play The Game
TTITLE7=Lonely Man
TTITLE8=Dry Those Tears
TTITLE9=White Line
EXTD=YEAR: 2003
EXTT0=
EXTT1=
EXTT2=
EXTT3=
EXTT4=
EXTT5=
EXTT6=
EXTT7=
EXTT8=
EXTT9=
PLAYORDER=
